Coordinates
version=1
nRows=14
nColumns=24
inDegrees=yes

Units are S.I. units (second, meters, Newtons, ...)
Angles are in degrees.

endheader
time	pelvis_tilt	pelvis_list	pelvis_rotation	pelvis_tx	pelvis_ty	pelvis_tz	hip_flexion_r	hip_adduction_r	hip_rotation_r	knee_angle_r	ankle_angle_r	subtalar_angle_r	mtp_angle_r	hip_flexion_l	hip_adduction_l	hip_rotation_l	knee_angle_l	ankle_angle_l	subtalar_angle_l	mtp_angle_l	lumbar_extension	lumbar_bending	lumbar_rotation
      1.37483333	     -2.22527732	     -9.71345593	    -14.90326197	      0.86823569	      0.97153827	      0.33506612	    -18.37832288	      7.75860529	      6.53070027	    -10.83423672	      7.30827870	     -5.68003941	      7.00882715	     30.84320246	    -17.67353490	    -11.86168179	     -2.55851209	      7.40586863	     -5.04762781	    -13.44348029	     -9.19529269	      8.10009858	     10.22851866
      1.37900000	     -2.25940935	     -9.73225140	    -15.17698686	      0.87466345	      0.97078595	      0.33540544	    -18.59106622	      7.57996866	      6.59900317	    -11.08622903	      7.03786399	     -5.52344606	      7.07128021	     30.69138586	    -17.85327145	    -11.79059101	     -3.14517061	      7.49966529	     -5.27662194	    -13.42961912	     -9.11929784	      8.05250441	     10.20734326
      1.38316667	     -2.25579569	     -9.71991784	    -15.55851551	      0.88105164	      0.97022342	      0.33592954	    -18.80958403	      7.33110905	      6.79631141	    -11.38968398	      6.82135193	     -5.36779006	      7.35079365	     30.40082129	    -18.03957400	    -11.84008405	     -3.62909813	      7.45047214	     -5.63858232	    -13.37336578	     -9.09868872	      7.92169160	     10.56461203
      1.38733333	     -2.20064210	     -9.64199113	    -15.95580771	      0.88755049	      0.96982319	      0.33650745	    -19.04515835	      6.99247319	      6.94295873	    -11.71781444	      6.49668616	     -5.26221628	      7.86265298	     30.00115788	    -18.15650776	    -12.06041193	     -4.04232534	      7.38418354	     -5.81211577	    -13.25179327	     -9.10345639	      7.68382641	     10.95150645
      1.39150000	     -2.18939417	     -9.58800029	    -16.26670578	      0.89414533	      0.96932800	      0.33689248	    -19.25376577	      6.71147646	      7.04412456	    -12.01019301	      6.16373678	     -5.13918794	      8.30535683	     29.68742821	    -18.24414311	    -12.20168777	     -4.46137913	      7.22604584	     -6.09761996	    -13.14057109	     -9.03508954	      7.52722587	     11.13608564
      1.39566667	     -2.01307563	     -9.51487511	    -16.58937180	      0.90069822	      0.96916591	      0.33725375	    -19.58780922	      6.34627211	      7.10703372	    -12.35245406	      5.79477812	     -4.98109654	      9.46775773	     29.14332753	    -18.27633000	    -12.47596614	     -4.80024063	      7.09345571	     -6.25658756	    -12.80442618	     -9.17802340	      7.27043485	     11.54604288
      1.39983333	     -2.12202014	     -9.41550836	    -16.84279283	      0.90739347	      0.96853065	      0.33747881	    -19.60159797	      6.07815730	      7.09896331	    -12.74478289	      5.38813551	     -4.96025370	      9.73316915	     28.96886072	    -18.29075136	    -12.60897950	     -5.14669090	      6.75118494	     -6.51836168	    -12.72264342	     -8.94230279	      7.12202421	     11.50899635
      1.40400000	     -2.03281227	     -9.30808206	    -17.14289613	      0.91403241	      0.96833941	      0.33779035	    -19.79481180	      5.71847779	      7.12760507	    -13.13439752	      4.87605978	     -4.95255588	     16.82020578	     28.50985593	    -18.27722336	    -12.95252536	     -5.39744335	      6.34832847	     -6.69346879	    -10.16493261	     -8.95421967	      6.86411382	     11.83386546
      1.40816667	     -2.05914787	     -9.14354969	    -17.33825947	      0.92079028	      0.96792856	      0.33783611	    -19.82542162	      5.36939800	      7.01399119	    -13.59002777	      4.44634410	     -4.86265664	     16.85090615	     28.22569434	    -18.15262562	    -13.12695801	     -5.61489946	      5.83300741	     -7.07050186	    -10.13283489	     -8.78669675	      6.61878312	     11.82590156
      1.41233333	     -2.00820151	     -8.95954944	    -17.52580755	      0.92755393	      0.96771949	      0.33785151	    -19.90477545	      4.97687763	      6.88143427	    -14.07072888	      3.95866357	     -4.77124886	     16.92577083	     27.84010021	    -17.98132241	    -13.37800249	     -5.76710876	      5.20467441	     -7.43327421	    -10.07159351	     -8.70078418	      6.33286846	     11.91672008
      1.41650000	     -1.84245454	     -8.75800132	    -17.68365967	      0.93428097	      0.96776375	      0.33779067	    -20.07159260	      4.53580641	      6.72355615	    -14.57240508	      3.45343452	     -4.62407232	     17.10736622	     27.31959692	    -17.74129986	    -13.67109864	     -5.84205686	      4.42996564	     -7.82208087	     -9.93484765	     -8.75536923	      5.97304947	     12.04777929
      1.42066667	     -1.82859434	     -8.51537843	    -17.81777380	      0.94111827	      0.96759576	      0.33775679	    -20.04938037	      4.13133040	      6.54832190	    -15.12215105	      2.85471051	     -4.69564699	     17.24287605	     27.02020674	    -17.49621299	    -13.99196727	     -5.98371870	      3.70723290	     -8.06698982	     -9.83724236	     -8.59090287	      5.62872200	     12.02602229
      1.42483333	     -1.60907250	     -8.25134849	    -17.90139400	      0.94788516	      0.96782790	      0.33753128	    -20.19541855	      3.63616722	      6.28254486	    -15.70396831	      2.27936731	     -4.56409029	     17.59031011	     26.47350005	    -17.13028311	    -14.28486925	     -5.99614641	      2.73600243	     -8.53034142	     -9.58506281	     -8.67655249	      5.19569309	     12.10955387
      1.42900000	     -1.49258813	     -7.95753372	    -17.94626098	      0.95470260	      0.96792137	      0.33726682	    -20.19830035	      3.17263498	      5.98497501	    -16.34116525	      1.62217543	     -4.58712020	     18.05541164	     26.09439480	    -16.74900072	    -14.54972956	     -6.05704551	      1.78347458	     -8.89253426	     -9.23947284	     -8.62168869	      4.77367863	     12.04692665
